<?xml version="1.0" standalone="no"?>
<!DOCTYPE svg PUBLIC "-//W3C//DTD SVG 20010904//EN"
 "http://www.w3.org/TR/2001/REC-SVG-20010904/DTD/svg10.dtd">
<svg version="1.0" xmlns="http://www.w3.org/2000/svg"
 width="510.000000pt" height="510.000000pt" viewBox="0 0 510.000000 510.000000"
 preserveAspectRatio="xMidYMid meet">
<metadata>
Created by potrace 1.10, written by Peter Selinger 2001-2011
</metadata>
<g transform="translate(0.000000,510.000000) scale(0.100000,-0.100000)"
fill="#5b6a00" stroke="none">
<path d="M2410 4509 c-82 -7 -165 -25 -192 -39 -10 -6 -23 -10 -29 -10 -10 0
-72 -28 -224 -100 -127 -60 -257 -120 -260 -120 -2 0 -41 -17 -87 -39 -46 -21
-105 -49 -133 -61 -27 -12 -79 -35 -115 -52 -36 -16 -78 -36 -95 -43 -48 -22
-173 -80 -268 -124 -48 -23 -90 -41 -94 -41 -3 0 -47 -20 -97 -44 -86 -41
-187 -88 -266 -123 -148 -66 -195 -103 -233 -183 -17 -35 -22 -63 -22 -125 0
-160 61 -224 320 -335 11 -4 49 -22 85 -38 87 -40 180 -83 265 -121 39 -17 99
-45 135 -62 36 -17 79 -37 95 -44 35 -16 142 -65 268 -124 49 -23 90 -41 93
-41 3 0 49 -20 102 -45 53 -25 113 -53 132 -62 19 -8 42 -19 50 -24 8 -5 26
-14 40 -19 31 -13 49 -21 130 -58 36 -17 88 -40 115 -52 59 -26 135 -61 260
-121 119 -57 148 -56 280 6 55 26 142 67 193 91 51 24 95 44 98 44 3 0 44 18
92 41 155 73 206 97 257 119 28 12 73 32 100 45 28 13 86 40 130 60 44 20 94
43 110 50 17 8 64 29 105 49 149 69 252 116 256 116 2 0 48 21 101 46 104 49
119 55 228 104 39 17 78 36 87 41 10 5 29 9 43 9 l25 0 0 -109 c0 -107 -1
-110 -26 -130 -39 -31 -46 -110 -14 -153 21 -29 22 -35 11 -72 -6 -23 -16 -72
-21 -111 -5 -38 -14 -90 -19 -115 -5 -25 -12 -89 -16 -143 -5 -96 -5 -98 21
-122 24 -22 36 -25 101 -25 53 0 84 5 105 18 l30 17 -5 105 c-5 113 -29 293
-46 350 -16 51 -14 77 10 110 30 40 22 98 -20 145 -31 35 -31 37 -31 150 0 62
3 121 6 130 4 9 25 25 48 37 111 56 157 118 164 220 3 50 0 80 -12 112 -20 53
-81 117 -134 141 -20 9 -62 28 -92 42 -30 14 -68 31 -85 38 -67 30 -191 86
-207 95 -10 6 -23 10 -29 10 -6 0 -25 7 -42 15 -82 38 -247 59 -392 50 -134
-9 -229 -35 -385 -108 -41 -19 -97 -45 -125 -57 -27 -12 -73 -33 -102 -46 -28
-13 -55 -24 -59 -24 -4 0 -48 -20 -98 -44 -50 -24 -113 -54 -141 -66 -27 -12
-86 -39 -130 -60 -195 -92 -215 -98 -254 -78 -14 7 -29 26 -34 41 -14 44 7 80
61 106 26 12 59 29 74 37 14 8 33 14 42 14 9 0 16 3 16 8 0 4 21 16 48 26 26
10 92 40 147 66 55 27 144 69 197 94 53 25 102 46 108 46 6 0 27 10 48 23 20
13 65 34 98 47 50 19 67 32 93 70 26 38 31 55 31 103 0 56 -2 60 -50 107 -27
28 -54 50 -61 50 -10 0 -45 16 -264 120 -105 50 -203 94 -240 108 -101 37
-268 54 -405 41z"/>
<path d="M1551 2351 c-40 -11 -63 -52 -63 -109 1 -29 -4 -55 -11 -59 -7 -5
-56 -8 -109 -8 l-98 0 -35 -36 c-58 -57 -61 -84 -59 -529 2 -486 -4 -467 139
-534 44 -21 89 -41 100 -46 11 -5 46 -20 78 -34 31 -14 85 -37 120 -51 65 -27
153 -67 200 -91 16 -8 33 -14 37 -14 5 0 42 -15 82 -34 107 -49 155 -70 228
-101 36 -15 94 -40 130 -57 36 -16 74 -33 85 -38 90 -41 191 -54 233 -30 9 5
40 19 67 30 28 12 64 27 80 35 17 7 48 21 70 30 22 9 54 23 70 30 111 51 166
75 171 75 4 0 36 14 73 31 36 17 75 35 86 40 11 4 49 21 85 37 36 16 90 40
120 52 30 13 82 36 116 51 33 16 63 29 67 29 16 0 199 92 214 108 10 10 26 35
36 55 15 34 17 78 17 446 0 452 1 448 -65 511 l-36 35 -105 -2 c-115 -2 -114
-3 -112 72 4 106 -72 138 -190 80 -29 -14 -91 -41 -139 -61 -47 -20 -93 -40
-102 -45 -9 -4 -45 -20 -81 -35 -36 -14 -87 -36 -115 -49 -27 -13 -68 -31 -90
-40 -22 -9 -56 -24 -75 -32 -19 -9 -51 -23 -70 -31 -19 -8 -43 -19 -52 -23
-35 -18 -103 -39 -124 -39 -20 0 -51 11 -134 46 -19 9 -46 20 -60 26 -14 5
-38 16 -55 23 -16 8 -46 20 -65 29 -19 8 -61 26 -93 40 -31 14 -85 37 -120 51
-34 14 -84 36 -112 49 -27 13 -75 34 -105 46 -30 12 -77 33 -103 46 -57 27
-94 35 -126 25z m-127 -275 c40 -18 55 -31 60 -51 4 -15 6 -156 6 -313 0 -158
-1 -297 0 -310 0 -22 54 -82 73 -82 5 0 23 -6 40 -14 18 -8 55 -24 82 -36 28
-12 73 -32 100 -45 28 -13 75 -33 105 -45 30 -13 77 -33 104 -46 28 -13 53
-24 58 -24 4 0 43 -16 85 -36 74 -33 89 -40 158 -69 56 -23 130 -56 148 -66
10 -6 40 -13 65 -16 48 -5 67 0 229 73 32 14 74 32 93 40 19 9 49 21 65 29 17
7 41 18 55 23 57 24 99 42 173 76 42 20 81 36 86 36 5 0 31 11 58 24 26 14 77
37 113 51 130 54 168 76 175 104 4 14 6 159 5 323 0 163 2 309 6 323 5 20 20
32 61 51 31 13 65 24 77 24 27 -1 63 -31 76 -65 6 -16 10 -174 10 -406 0 -428
-1 -433 -66 -463 -22 -10 -66 -30 -99 -46 -100 -46 -133 -60 -138 -60 -3 0
-36 -14 -74 -31 -37 -16 -77 -34 -88 -39 -11 -5 -55 -25 -98 -44 -42 -20 -81
-36 -85 -36 -5 0 -30 -11 -58 -24 -83 -40 -143 -66 -150 -66 -4 0 -37 -14 -73
-31 -36 -17 -75 -35 -86 -39 -11 -5 -55 -25 -98 -44 -42 -20 -84 -36 -92 -36
-7 0 -17 -5 -20 -10 -3 -6 -19 -10 -35 -10 -27 0 -47 7 -175 64 -33 15 -69 31
-80 36 -11 5 -50 23 -87 39 -37 17 -70 31 -72 31 -3 0 -41 16 -83 36 -43 19
-89 40 -103 46 -14 5 -38 16 -55 23 -16 8 -52 23 -80 35 -73 31 -82 35 -170
75 -44 20 -88 40 -97 45 -10 6 -22 10 -27 10 -5 0 -43 16 -84 35 -41 19 -79
35 -83 35 -5 0 -21 10 -36 23 l-27 22 -2 375 c-2 503 -4 464 28 495 35 31 60
32 127 1z"/>
</g>
</svg>
