<svg width="25" height="25" viewBox="0 0 25 25" fill="none" xmlns="http://www.w3.org/2000/svg">
<path d="M17.0943 0H7.77013C3.47946 0 0 3.47946 0 7.77013V17.0943C0 21.3849 3.47946 24.8644 7.77013 24.8644H17.0943C21.3849 24.8644 24.8644 21.3849 24.8644 17.0943V7.77013C24.8644 3.47946 21.3849 0 17.0943 0ZM22.5334 17.0943C22.5334 20.0935 20.0935 22.5334 17.0943 22.5334H7.77013C4.77086 22.5334 2.33104 20.0935 2.33104 17.0943V7.77013C2.33104 4.77086 4.77086 2.33104 7.77013 2.33104H17.0943C20.0935 2.33104 22.5334 4.77086 22.5334 7.77013V17.0943Z" fill="#8A8A8A"/>
<path d="M12.4322 6.21606C8.99932 6.21606 6.21606 8.99932 6.21606 12.4322C6.21606 15.865 8.99932 18.6483 12.4322 18.6483C15.865 18.6483 18.6483 15.865 18.6483 12.4322C18.6483 8.99932 15.865 6.21606 12.4322 6.21606ZM12.4322 16.3172C10.2907 16.3172 8.5471 14.5736 8.5471 12.4322C8.5471 10.2892 10.2907 8.5471 12.4322 8.5471C14.5736 8.5471 16.3172 10.2892 16.3172 12.4322C16.3172 14.5736 14.5736 16.3172 12.4322 16.3172Z" fill="#8A8A8A"/>
<path d="M19.1146 6.57797C19.572 6.57797 19.9428 6.20713 19.9428 5.74968C19.9428 5.29223 19.572 4.92139 19.1146 4.92139C18.6571 4.92139 18.2863 5.29223 18.2863 5.74968C18.2863 6.20713 18.6571 6.57797 19.1146 6.57797Z" fill="black"/>
</svg>
