<svg width="47" height="38" viewBox="0 0 47 38" fill="none" xmlns="http://www.w3.org/2000/svg">
<path d="M39.5421 13.5751C34.3384 15.3734 32.5074 16.4339 30.5896 20.1206C31.2207 23.4492 32.5567 26.6047 34.6869 29.7278C38.7234 26.9381 41.0299 27.1818 46.0881 26.3738C41.2681 28.4738 39.083 28.6259 36.5701 32.2319C40.1967 36.6432 45.4629 41.0654 52.6219 45.8983C55.1292 37.5522 56.0228 29.1145 55.4637 23.6676C52.4846 23.1348 50.8176 23.9805 48.8688 25.1806C49.9725 22.8602 51.5444 22.5703 54.7157 21.6178C53.5444 16.0898 51.59 12.8848 47.5103 8.97029C44.5398 9.29565 42.993 11.5003 41.3692 12.4617C42.0308 10.8588 43.2472 8.36692 46.0714 7.65083C42.8024 4.7793 37.0718 2.92876 32.5508 0.0454125C30.0637 6.69434 29.9535 11.4129 30.1839 16.5969C32.0713 14.366 33.9911 14.1043 39.5421 13.5751Z" fill="#7C8E0E"/>
<path fill-rule="evenodd" clip-rule="evenodd" d="M39.0111 13.6262C37.2542 10.6597 35.2981 7.45634 33.1328 3.9103C32.7302 3.25084 32.3202 2.57954 31.903 1.8957C32.0986 1.29515 32.314 0.67915 32.551 0.0456227C33.1935 0.455403 33.8605 0.844322 34.5413 1.21828C34.8602 1.74057 35.175 2.2559 35.4858 2.76459L35.4864 2.76557C45.7496 19.5654 51.5824 29.1132 53.5353 42.5789C53.2591 43.6822 52.9548 44.7912 52.6222 45.8985C52.1438 45.5756 51.674 45.2546 51.2125 44.9352C50.4494 38.1493 48.7399 32.4981 45.9372 26.4396C45.9873 26.418 46.0376 26.3961 46.0883 26.3741C46.0316 26.3831 45.9753 26.392 45.9193 26.4008C44.1072 22.489 41.8395 18.4061 39.0769 13.7374C39.229 13.684 39.3841 13.63 39.5423 13.5753C39.3614 13.5925 39.1844 13.6095 39.0111 13.6262Z" fill="#5B6A00"/>
<path d="M16.6003 20.5887C12.5238 25.6478 11.3573 27.8557 11.7497 32.744C14.4667 35.677 17.78 37.9952 21.8671 39.7835C24.1554 34.4644 26.6146 33.2627 31.1663 29.2852C27.6624 34.4055 25.5726 35.9268 25.3194 41.1074C31.7102 43.246 39.7474 44.3682 49.9347 44.7148C47.212 34.7978 42.8181 25.8003 38.8459 20.704C35.533 22.038 34.3959 23.9282 33.1992 26.3494C32.8489 23.3375 34.2391 22.0626 36.8134 19.1228C32.1781 14.3291 28.2153 12.3488 21.6828 10.9909C18.9163 13.1776 18.751 16.3515 17.7298 18.3304C17.3869 16.313 17.0417 13.0589 19.4171 10.5731C14.3488 9.75014 7.45876 11.4906 1.13104 11.4404C2.81049 19.6476 5.65711 24.4351 9.13597 29.4746C9.62535 26.0611 11.3811 24.5964 16.6003 20.5887Z" fill="#97AB1E"/>
<path fill-rule="evenodd" clip-rule="evenodd" d="M16.1439 20.9388C12.5233 19.0705 8.55458 17.0903 4.16104 14.8981C3.33178 14.4843 2.4874 14.063 1.62735 13.6335C1.45231 12.9295 1.28686 12.1991 1.1314 11.4393C1.99873 11.4462 2.87663 11.4195 3.75896 11.3703C4.42884 11.7046 5.08965 12.0341 5.74162 12.3593L5.74554 12.3612C26.5906 22.7567 38.4048 28.6486 48.8074 40.9436C49.208 42.1809 49.5853 43.4397 49.9351 44.7138C49.2765 44.6913 48.6268 44.6657 47.986 44.6367C42.9592 38.3077 37.6976 33.7161 31.0842 29.4044C31.1116 29.3645 31.1391 29.3244 31.1667 29.2841C31.1285 29.3175 31.0904 29.3507 31.0525 29.3837C26.7864 26.6048 21.9579 23.9413 16.2677 21.0027C16.3765 20.8665 16.4875 20.7281 16.6007 20.5876C16.4454 20.7069 16.2931 20.8239 16.1439 20.9388Z" fill="#5B6A00"/>
</svg>
