<svg width="45" height="36" viewBox="0 0 45 36" fill="none" xmlns="http://www.w3.org/2000/svg">
<path d="M4.58681 14.9077C9.84584 16.537 11.7102 17.5378 13.7461 21.1605C13.2228 24.5078 11.9895 27.7048 9.96138 30.8952C5.8368 28.2373 3.53935 28.5554 -1.54224 27.9113C3.3431 29.8544 5.53195 29.9358 8.16006 33.4587C4.67785 37.9849 -0.442681 42.575 -7.44188 47.6367C-10.2175 39.3759 -11.3832 30.9715 -11.0004 25.5094C-8.0401 24.8806 -6.34662 25.6719 -4.36003 26.8084C-5.53819 24.525 -7.11859 24.286 -10.3191 23.4364C-9.32691 17.8735 -7.47709 14.607 -3.52598 10.5627C-0.546584 10.792 1.07066 12.9454 2.72464 13.8539C2.01164 12.2733 0.715366 9.82196 -2.13047 9.19748C1.04404 6.22184 6.71184 4.18711 11.1373 1.1592C13.8379 7.7243 14.1005 12.4368 14.0377 17.6256C12.0793 15.4568 10.152 15.2573 4.58681 14.9077Z" fill="#7C8E0E"/>
<path fill-rule="evenodd" clip-rule="evenodd" d="M5.11924 14.9415C6.77936 11.9198 8.6309 8.65488 10.6805 5.04073C11.0616 4.36861 11.4497 3.68441 11.8446 2.98745C11.6297 2.39353 11.3945 1.78481 11.1372 1.15927C10.5082 1.5896 9.85418 1.99986 9.18577 2.39562C8.88391 2.92794 8.58591 3.45318 8.29174 3.97164L8.29117 3.97264C-1.42387 21.0953 -6.94518 30.8266 -8.46197 44.3483C-8.15024 45.4422 -7.81031 46.5407 -7.44205 47.6367C-6.97441 47.2985 -6.51516 46.9625 -6.06422 46.6284C-5.52082 39.8213 -3.99474 34.1178 -1.38933 27.972C-1.44006 27.952 -1.49109 27.9318 -1.54241 27.9113C-1.48547 27.9186 -1.42888 27.9257 -1.37264 27.9326C0.31212 23.9643 2.44669 19.8103 5.05707 15.0547C4.90333 15.0063 4.74655 14.9573 4.58663 14.9077C4.76799 14.9191 4.94548 14.9304 5.11924 14.9415Z" fill="#5B6A00"/>
<path d="M27.7432 21.1764C31.9811 26.1011 33.2183 28.2702 32.984 33.1686C30.3633 36.1879 27.1266 38.6119 23.0994 40.5313C20.6404 35.2889 18.1437 34.1674 13.4658 30.3389C17.1334 35.3434 19.2712 36.7964 19.6916 41.9661C13.3733 44.3101 5.37657 45.6913 -4.79426 46.3669C-2.39336 36.3671 1.7075 27.2324 5.51306 22.0103C8.86726 23.2366 10.0648 25.0891 11.3392 27.4704C11.592 24.4487 10.1613 23.2194 7.49333 20.3644C11.9714 15.4233 15.8681 13.316 22.3533 11.7478C25.189 13.844 25.4568 17.0108 26.5414 18.9557C26.8189 16.9283 27.0588 13.6648 24.6043 11.257C29.6434 10.2707 36.5861 11.7877 42.9089 11.533C41.4955 19.7903 38.805 24.6672 35.4908 29.8165C34.8914 26.4206 33.0892 25.0133 27.7432 21.1764Z" fill="#97AB1E"/>
<path fill-rule="evenodd" clip-rule="evenodd" d="M28.2108 21.5114C31.7691 19.5271 35.6718 17.4197 39.9923 15.0867C40.8077 14.6463 41.6381 14.198 42.4838 13.7409C42.636 13.0316 42.7777 12.2962 42.9086 11.5319C42.0419 11.5668 41.1636 11.5684 40.2802 11.5477C39.6214 11.9035 38.9716 12.2542 38.3305 12.6002L38.3266 12.6023C17.8283 23.6659 6.21061 29.9364 -3.78932 42.561C-4.14964 43.8107 -4.48613 45.0811 -4.79457 46.3657C-4.137 46.322 -3.48852 46.2754 -2.84899 46.2257C1.97068 39.7376 7.08122 34.9784 13.5519 30.4553C13.5232 30.4163 13.4944 30.3771 13.4655 30.3377C13.5048 30.3699 13.5439 30.4018 13.5829 30.4336C17.7569 27.5183 22.4968 24.7002 28.0891 21.5793C27.976 21.4466 27.8606 21.3119 27.7429 21.1752C27.902 21.2893 28.058 21.4014 28.2108 21.5114Z" fill="#5B6A00"/>
</svg>
