<svg width="37" height="24" viewBox="0 0 37 24" fill="none" xmlns="http://www.w3.org/2000/svg">
<path d="M35.0709 2.92218C34.0999 1.35191 33.0461 1.06308 30.9004 0.953243C28.7569 0.821032 23.367 0.766113 18.6975 0.766113C14.019 0.766113 8.62681 0.821032 6.48559 0.95121C4.34437 1.06308 3.28831 1.34988 2.30832 2.92218C1.30819 4.49041 0.793579 7.19159 0.793579 11.9471C0.793579 11.9512 0.793579 11.9532 0.793579 11.9532C0.793579 11.9573 0.793579 11.9593 0.793579 11.9593V11.9634C0.793579 16.6986 1.30819 19.4201 2.30832 20.9721C3.28831 22.5424 4.34214 22.8271 6.48335 22.9593C8.62681 23.0732 14.019 23.1404 18.6975 23.1404C23.367 23.1404 28.7569 23.0732 30.9026 22.9614C33.0483 22.8292 34.1021 22.5444 35.0732 20.9741C36.0823 19.4222 36.5924 16.7007 36.5924 11.9654C36.5924 11.9654 36.5924 11.9593 36.5924 11.9553C36.5924 11.9553 36.5924 11.9512 36.5924 11.9492C36.5924 7.19159 36.0823 4.49041 35.0709 2.92218ZM14.2181 18.0553V5.85117L25.4053 11.9532L14.2181 18.0553Z" fill="#D73D41"/>
</svg>
