<svg width="34" height="23" viewBox="0 0 34 23" fill="none" xmlns="http://www.w3.org/2000/svg">
<path d="M32.555 2.21636C31.6328 0.602182 30.6319 0.305273 28.594 0.192364C26.5583 0.0564546 21.4391 0 17.0042 0C12.5609 0 7.43963 0.0564547 5.406 0.190273C3.37238 0.305273 2.36937 0.600091 1.43863 2.21636C0.48875 3.82845 0 6.60518 0 11.4937C0 11.4979 0 11.5 0 11.5C0 11.5042 0 11.5063 0 11.5063V11.5105C0 16.3781 0.48875 19.1757 1.43863 20.7711C2.36937 22.3853 3.37025 22.678 5.40388 22.8139C7.43963 22.931 12.5609 23 17.0042 23C21.4391 23 26.5583 22.931 28.5961 22.816C30.634 22.6801 31.6349 22.3874 32.5571 20.7732C33.5155 19.1778 34 16.3802 34 11.5125C34 11.5125 34 11.5063 34 11.5021C34 11.5021 34 11.4979 34 11.4958C34 6.60518 33.5155 3.82845 32.555 2.21636ZM12.75 17.7727V5.22727L23.375 11.5L12.75 17.7727Z" fill="#8A8A8A"/>
</svg>
